Mailpile-Normal.ufo
<glyph name="exclam" format="1">
  <advance width="575"/>
  <unicode hex="0021"/>
  <outline>
    <contour>
      <point x="381" y="1495" type="line"/>
      <point x="212" y="1495" type="line"/>
      <point x="238" y="360" type="line"/>
      <point x="347" y="360" type="line"/>
    </contour>
    <contour>
      <point x="395" y="120"/>
      <point x="384" y="146"/>
      <point x="363" y="168" type="curve" smooth="yes"/>
      <point x="342" y="190"/>
      <point x="316" y="201"/>
      <point x="286" y="201" type="curve" smooth="yes"/>
      <point x="257" y="201"/>
      <point x="232" y="190"/>
      <point x="210" y="168" type="curve" smooth="yes"/>
      <point x="188" y="146"/>
      <point x="177" y="120"/>
      <point x="177" y="90" type="curve" smooth="yes"/>
      <point x="177" y="61"/>
      <point x="188" y="36"/>
      <point x="210" y="15" type="curve" smooth="yes"/>
      <point x="232" y="-6"/>
      <point x="257" y="-17"/>
      <point x="286" y="-17" type="curve" smooth="yes"/>
      <point x="316" y="-17"/>
      <point x="342" y="-6"/>
      <point x="363" y="15" type="curve" smooth="yes"/>
      <point x="384" y="36"/>
      <point x="395" y="61"/>
      <point x="395" y="90" type="curve" smooth="yes"/>
    </contour>
  </outline>
</glyph>
<glyph name="ampersand" format="1">
  <advance width="1362"/>
  <unicode hex="0026"/>
  <outline>
    <contour>
      <point x="594" y="908" type="line"/>
      <point x="587" y="916"/>
      <point x="573" y="931"/>
      <point x="553" y="952" type="curve" smooth="yes"/>
      <point x="533" y="972.999"/>
      <point x="518" y="989.999"/>
      <point x="509" y="1002" type="curve" smooth="yes"/>
      <point x="483" y="1035"/>
      <point x="459" y="1072"/>
      <point x="437" y="1113" type="curve" smooth="yes"/>
      <point x="415" y="1154"/>
      <point x="404" y="1192"/>
      <point x="404" y="1226" type="curve" smooth="yes"/>
      <point x="404" y="1271"/>
      <point x="416" y="1307"/>
      <point x="440" y="1335" type="curve" smooth="yes"/>
      <point x="464" y="1363"/>
      <point x="492" y="1383"/>
      <point x="523" y="1394" type="curve" smooth="yes"/>
      <point x="581" y="1415"/>
      <point x="639" y="1409"/>
      <point x="698" y="1376" type="curve" smooth="yes"/>
      <point x="757" y="1343"/>
      <point x="789" y="1295"/>
      <point x="794" y="1232" type="curve"/>
      <point x="797" y="1160"/>
      <point x="777" y="1096"/>
      <point x="734" y="1040" type="curve" smooth="yes"/>
      <point x="691" y="983.999"/>
      <point x="644" y="940"/>
      <point x="593" y="909" type="curve"/>
    </contour>
    <contour>
      <point x="917" y="284" type="line"/>
      <point x="870" y="225"/>
      <point x="817" y="176"/>
      <point x="758" y="138" type="curve" smooth="yes"/>
      <point x="699" y="99.9999"/>
      <point x="630" y="81"/>
      <point x="551" y="81" type="curve" smooth="yes"/>
      <point x="462" y="81"/>
      <point x="383" y="102"/>
      <point x="315" y="144" type="curve" smooth="yes"/>
      <point x="247" y="186"/>
      <point x="213" y="258"/>
      <point x="213" y="361" type="curve" smooth="yes"/>
      <point x="213" y="434"/>
      <point x="249" y="508"/>
      <point x="320" y="582" type="curve" smooth="yes"/>
      <point x="391" y="656"/>
      <point x="468" y="712"/>
      <point x="550" y="750" type="curve"/>
    </contour>
    <contour>
      <point x="672" y="816" type="line"/>
      <point x="745" y="863"/>
      <point x="804" y="916"/>
      <point x="849" y="973.999" type="curve" smooth="yes"/>
      <point x="894" y="1032"/>
      <point x="917" y="1118"/>
      <point x="917" y="1231" type="curve" smooth="yes"/>
      <point x="917" y="1270"/>
      <point x="908" y="1307"/>
      <point x="890" y="1343" type="curve" smooth="yes"/>
      <point x="872" y="1379"/>
      <point x="850" y="1410"/>
      <point x="823" y="1437" type="curve" smooth="yes"/>
      <point x="783" y="1477"/>
      <point x="731" y="1503"/>
      <point x="667" y="1515" type="curve" smooth="yes"/>
      <point x="603" y="1527"/>
      <point x="541" y="1523"/>
      <point x="482" y="1503" type="curve" smooth="yes"/>
      <point x="424" y="1485"/>
      <point x="376" y="1452"/>
      <point x="339" y="1404" type="curve" smooth="yes"/>
      <point x="302" y="1356"/>
      <point x="283" y="1296"/>
      <point x="283" y="1225" type="curve" smooth="yes"/>
      <point x="283" y="1159"/>
      <point x="304" y="1091"/>
      <point x="347" y="1021" type="curve" smooth="yes"/>
      <point x="390" y="951"/>
      <point x="431" y="892"/>
      <point x="470" y="845" type="curve"/>
      <point x="374" y="798"/>
      <point x="285" y="732"/>
      <point x="203" y="647" type="curve" smooth="yes"/>
      <point x="121" y="562"/>
      <point x="80" y="469"/>
      <point x="80" y="369" type="curve" smooth="yes"/>
      <point x="80" y="236"/>
      <point x="125" y="135"/>
      <point x="216" y="67" type="curve" smooth="yes"/>
      <point x="307" y="-0.999999"/>
      <point x="415" y="-35"/>
      <point x="541" y="-35" type="curve" smooth="yes"/>
      <point x="636" y="-35"/>
      <point x="720" y="-18"/>
      <point x="792" y="16" type="curve" smooth="yes"/>
      <point x="864" y="50"/>
      <point x="931" y="106"/>
      <point x="992.999" y="184" type="curve"/>
      <point x="1132" y="-0.999999" type="line"/>
      <point x="1294" y="-0.999999" type="line"/>
      <point x="1060" y="295" type="line"/>
      <point x="1096" y="354"/>
      <point x="1120" y="409"/>
      <point x="1133" y="460" type="curve" smooth="yes"/>
      <point x="1146" y="511"/>
      <point x="1157" y="572"/>
      <point x="1166" y="644" type="curve"/>
      <point x="1054" y="681" type="line"/>
      <point x="1047" y="626"/>
      <point x="1040" y="576"/>
      <point x="1032" y="532" type="curve" smooth="yes"/>
      <point x="1024" y="488"/>
      <point x="1007" y="443"/>
      <point x="980.999" y="397" type="curve"/>
    </contour>
  </outline>
</glyph>
<glyph name="parenright" format="1">
  <advance width="600"/>
  <unicode hex="0029"/>
  <outline>
    <contour>
      <point x="490" y="748" type="line"/>
      <point x="489" y="974.999"/>
      <point x="452" y="1162"/>
      <point x="379" y="1308" type="curve" smooth="yes"/>
      <point x="306" y="1454"/>
      <point x="221" y="1565"/>
      <point x="125" y="1640" type="curve"/>
      <point x="67" y="1522" type="line"/>
      <point x="161" y="1444"/>
      <point x="235" y="1341"/>
      <point x="289" y="1213" type="curve" smooth="yes"/>
      <point x="343" y="1085"/>
      <point x="370" y="930"/>
      <point x="370" y="749" type="curve" smooth="yes"/>
      <point x="370" y="567"/>
      <point x="343" y="409"/>
      <point x="289" y="274" type="curve" smooth="yes"/>
      <point x="235" y="139"/>
      <point x="161" y="33"/>
      <point x="67" y="-45" type="curve"/>
      <point x="139" y="-150" type="line"/>
      <point x="208" y="-103"/>
      <point x="284" y="6"/>
      <point x="367" y="176" type="curve" smooth="yes"/>
      <point x="450" y="346"/>
      <point x="491" y="537"/>
      <point x="490" y="750" type="curve"/>
    </contour>
  </outline>
</glyph>
<glyph name="hyphen" format="1">
  <advance width="992"/>
  <unicode hex="002D"/>
  <outline>
    <contour>
      <point x="856" y="713" type="line"/>
      <point x="135" y="713" type="line"/>
      <point x="135" y="588" type="line"/>
      <point x="856" y="588" type="line"/>
    </contour>
  </outline>
</glyph>
<glyph name="period" format="1">
  <advance width="537"/>
  <unicode hex="002E"/>
  <outline>
    <contour>
      <point x="381" y="95.9999" type="line"/>
      <point x="381" y="126"/>
      <point x="370" y="152"/>
      <point x="347" y="175" type="curve" smooth="yes"/>
      <point x="324" y="198"/>
      <point x="298" y="209"/>
      <point x="268" y="209" type="curve" smooth="yes"/>
      <point x="238" y="209"/>
      <point x="212" y="198"/>
      <point x="190" y="175" type="curve" smooth="yes"/>
      <point x="168" y="152"/>
      <point x="157" y="125"/>
      <point x="157" y="93.9999" type="curve" smooth="yes"/>
      <point x="157" y="64"/>
      <point x="168" y="38"/>
      <point x="190" y="16" type="curve" smooth="yes"/>
      <point x="212" y="-6"/>
      <point x="238" y="-17"/>
      <point x="268" y="-17" type="curve" smooth="yes"/>
      <point x="299" y="-17"/>
      <point x="326" y="-6"/>
      <point x="349" y="16" type="curve" smooth="yes"/>
      <point x="372" y="38"/>
      <point x="383" y="64"/>
      <point x="383" y="93.9999" type="curve"/>
    </contour>
  </outline>
</glyph>
<glyph name="eight" format="1">
  <advance width="1284"/>
  <unicode hex="0038"/>
  <outline>
    <contour>
      <point x="720" y="809" type="line"/>
      <point x="906" y="851"/>
      <point x="1092" y="968"/>
      <point x="1092" y="1157" type="curve" smooth="yes"/>
      <point x="1092" y="1397"/>
      <point x="898" y="1529"/>
      <point x="634" y="1530" type="curve" smooth="yes"/>
      <point x="377" y="1530"/>
      <point x="162" y="1398"/>
      <point x="162" y="1172" type="curve" smooth="yes"/>
      <point x="162" y="971"/>
      <point x="330" y="877"/>
      <point x="525" y="789" type="curve" smooth="yes"/>
      <point x="816" y="658"/>
      <point x="988" y="570"/>
      <point x="988" y="379" type="curve" smooth="yes"/>
      <point x="988" y="203"/>
      <point x="839" y="104"/>
      <point x="631" y="104" type="curve" smooth="yes"/>
      <point x="432" y="108"/>
      <point x="264" y="213"/>
      <point x="264" y="405" type="curve" smooth="yes"/>
      <point x="264" y="591"/>
      <point x="422" y="706"/>
      <point x="605" y="783" type="curve"/>
      <point x="454" y="831" type="line"/>
      <point x="271" y="741"/>
      <point x="129" y="604"/>
      <point x="129" y="394" type="curve" smooth="yes"/>
      <point x="129" y="128"/>
      <point x="353" y="-21"/>
      <point x="634" y="-21" type="curve" smooth="yes"/>
      <point x="915" y="-21"/>
      <point x="1128" y="130"/>
      <point x="1128" y="387" type="curve" smooth="yes"/>
      <point x="1128" y="616"/>
      <point x="966" y="742"/>
      <point x="700" y="859" type="curve" smooth="yes"/>
      <point x="512" y="942"/>
      <point x="307" y="1011"/>
      <point x="303" y="1178" type="curve" smooth="yes"/>
      <point x="299" y="1322"/>
      <point x="445" y="1405"/>
      <point x="633" y="1405" type="curve" smooth="yes"/>
      <point x="811" y="1405"/>
      <point x="967" y="1321"/>
      <point x="967" y="1162" type="curve" smooth="yes"/>
      <point x="967" y="1013"/>
      <point x="749" y="923"/>
      <point x="598" y="875" type="curve"/>
    </contour>
  </outline>
</glyph>
<glyph name="at" format="1">
  <advance width="2137"/>
  <unicode hex="0040"/>
  <outline>
    <contour>
      <point x="1134" y="1577" type="line"/>
      <point x="793" y="1577"/>
      <point x="531" y="1466"/>
      <point x="349" y="1245" type="curve" smooth="yes"/>
      <point x="167" y="1024"/>
      <point x="76" y="773"/>
      <point x="76" y="493" type="curve" smooth="yes"/>
      <point x="76" y="242"/>
      <point x="160" y="18"/>
      <point x="328" y="-179" type="curve" smooth="yes"/>
      <point x="496" y="-376"/>
      <point x="734" y="-474"/>
      <point x="1041" y="-474" type="curve" smooth="yes"/>
      <point x="1178" y="-474"/>
      <point x="1289" y="-459"/>
      <point x="1373" y="-429" type="curve" smooth="yes"/>
      <point x="1457" y="-399"/>
      <point x="1544" y="-351"/>
      <point x="1634" y="-284" type="curve"/>
      <point x="1551" y="-173" type="line"/>
      <point x="1470" y="-236"/>
      <point x="1395" y="-280"/>
      <point x="1327" y="-304" type="curve" smooth="yes"/>
      <point x="1259" y="-328"/>
      <point x="1166" y="-340"/>
      <point x="1049" y="-340" type="curve"/>
      <point x="822" y="-348"/>
      <point x="627" y="-271"/>
      <point x="463" y="-110" type="curve" smooth="yes"/>
      <point x="299" y="51"/>
      <point x="217" y="251"/>
      <point x="217" y="489" type="curve" smooth="yes"/>
      <point x="217" y="744"/>
      <point x="301" y="967.999"/>
      <point x="469" y="1160" type="curve" smooth="yes"/>
      <point x="637" y="1352"/>
      <point x="858" y="1448"/>
      <point x="1131" y="1448" type="curve" smooth="yes"/>
      <point x="1408" y="1448"/>
      <point x="1617" y="1360"/>
      <point x="1757" y="1185" type="curve" smooth="yes"/>
      <point x="1897" y="1010"/>
      <point x="1967" y="817"/>
      <point x="1967" y="606" type="curve" smooth="yes"/>
      <point x="1967" y="465"/>
      <point x="1934" y="349"/>
      <point x="1868" y="259" type="curve" smooth="yes"/>
      <point x="1802" y="169"/>
      <point x="1721" y="124"/>
      <point x="1625" y="124" type="curve"/>
      <point x="1625" y="0" type="line"/>
      <point x="1788" y="15"/>
      <point x="1909" y="82"/>
      <point x="1988" y="200" type="curve" smooth="yes"/>
      <point x="2067" y="318"/>
      <point x="2107" y="454"/>
      <point x="2107" y="607" type="curve" smooth="yes"/>
      <point x="2107" y="856"/>
      <point x="2028" y="1080"/>
      <point x="1869" y="1279" type="curve" smooth="yes"/>
      <point x="1710" y="1478"/>
      <point x="1465" y="1578"/>
      <point x="1134" y="1578" type="curve"/>
    </contour>
    <contour>
      <point x="1382" y="490" type="line" smooth="yes"/>
      <point x="1382" y="455"/>
      <point x="1374" y="415"/>
      <point x="1359" y="371" type="curve" smooth="yes"/>
      <point x="1344" y="327"/>
      <point x="1321" y="281"/>
      <point x="1290" y="233" type="curve" smooth="yes"/>
      <point x="1259" y="185"/>
      <point x="1222" y="150"/>
      <point x="1179" y="128" type="curve" smooth="yes"/>
      <point x="1136" y="106"/>
      <point x="1087" y="93.9999"/>
      <point x="1032" y="92.9999" type="curve" smooth="yes"/>
      <point x="973.999" y="92.9999"/>
      <point x="925" y="96.9999"/>
      <point x="886" y="106" type="curve" smooth="yes"/>
      <point x="847" y="115"/>
      <point x="817" y="128"/>
      <point x="797" y="145" type="curve" smooth="yes"/>
      <point x="777" y="163"/>
      <point x="762" y="188"/>
      <point x="753" y="219" type="curve" smooth="yes"/>
      <point x="744" y="250"/>
      <point x="740" y="288"/>
      <point x="741" y="333" type="curve"/>
      <point x="737" y="425"/>
      <point x="780" y="488"/>
      <point x="870" y="522" type="curve" smooth="yes"/>
      <point x="960" y="556"/>
      <point x="1083" y="571"/>
      <point x="1240" y="567" type="curve" smooth="yes"/>
      <point x="1381" y="567" type="line"/>
    </contour>
    <contour>
      <point x="1609" y="124" type="line"/>
      <point x="1582" y="124"/>
      <point x="1560" y="130"/>
      <point x="1542" y="142" type="curve" smooth="yes"/>
      <point x="1524" y="154"/>
      <point x="1515" y="177"/>
      <point x="1515" y="210" type="curve" smooth="yes"/>
      <point x="1515" y="746" type="line" smooth="yes"/>
      <point x="1515" y="885"/>
      <point x="1483" y="980.999"/>
      <point x="1420" y="1034" type="curve" smooth="yes"/>
      <point x="1357" y="1087"/>
      <point x="1256" y="1114"/>
      <point x="1117" y="1114" type="curve" smooth="yes"/>
      <point x="950" y="1114"/>
      <point x="838" y="1092"/>
      <point x="781" y="1049" type="curve" smooth="yes"/>
      <point x="724" y="1006"/>
      <point x="695" y="963"/>
      <point x="695" y="920" type="curve" smooth="yes"/>
      <point x="695" y="827" type="line"/>
      <point x="833" y="827" type="line"/>
      <point x="833" y="878" type="line" smooth="yes"/>
      <point x="833" y="918"/>
      <point x="849" y="948"/>
      <point x="881" y="967.999" type="curve" smooth="yes"/>
      <point x="913" y="987.999"/>
      <point x="990.999" y="997.999"/>
      <point x="1116" y="997.999" type="curve" smooth="yes"/>
      <point x="1259" y="997.999"/>
      <point x="1339" y="964"/>
      <point x="1356" y="896" type="curve" smooth="yes"/>
      <point x="1373" y="828"/>
      <point x="1381" y="758"/>
      <point x="1381" y="685" type="curve"/>
      <point x="1238" y="685" type="line" smooth="yes"/>
      <point x="1041" y="685"/>
      <point x="888" y="659"/>
      <point x="778" y="607" type="curve" smooth="yes"/>
      <point x="668" y="555"/>
      <point x="613" y="462"/>
      <point x="613" y="328" type="curve" smooth="yes"/>
      <point x="613" y="187"/>
      <point x="650" y="89"/>
      <point x="723" y="35" type="curve" smooth="yes"/>
      <point x="796" y="-19"/>
      <point x="900" y="-42"/>
      <point x="1035" y="-34" type="curve" smooth="yes"/>
      <point x="1124" y="-29"/>
      <point x="1192" y="-13"/>
      <point x="1239" y="13" type="curve" smooth="yes"/>
      <point x="1286" y="39"/>
      <point x="1321" y="67"/>
      <point x="1344" y="95.9999" type="curve" smooth="yes"/>
      <point x="1363" y="120"/>
      <point x="1376" y="138"/>
      <point x="1382" y="150" type="curve" smooth="yes"/>
      <point x="1388" y="162"/>
      <point x="1395" y="176"/>
      <point x="1402" y="191" type="curve"/>
      <point x="1401" y="152"/>
      <point x="1409" y="110"/>
      <point x="1425" y="65" type="curve" smooth="yes"/>
      <point x="1441" y="20"/>
      <point x="1487" y="-3"/>
      <point x="1562" y="-3" type="curve" smooth="yes"/>
      <point x="1624" y="-3" type="line"/>
      <point x="1624" y="121" type="line"/>
    </contour>
  </outline>
</glyph>
<glyph name="E" format="1">
  <advance width="1167"/>
  <unicode hex="0045"/>
  <outline>
    <contour>
      <point x="357" y="695" type="line"/>
      <point x="955" y="695" type="line"/>
      <point x="955" y="825" type="line"/>
      <point x="357" y="825" type="line"/>
    </contour>
    <contour>
      <point x="373" y="1366" type="line"/>
      <point x="932" y="1366" type="line"/>
      <point x="932" y="1236" type="line"/>
      <point x="1070" y="1236" type="line"/>
      <point x="1070" y="1433" type="line" smooth="yes"/>
      <point x="1070" y="1454"/>
      <point x="1065" y="1470"/>
      <point x="1055" y="1480" type="curve" smooth="yes"/>
      <point x="1045" y="1490"/>
      <point x="1030" y="1495"/>
      <point x="1009" y="1495" type="curve" smooth="yes"/>
      <point x="97.9999" y="1495" type="line"/>
      <point x="98" y="1366" type="line"/>
      <point x="234" y="1366" type="line"/>
      <point x="234" y="0" type="line"/>
      <point x="1006" y="0" type="line" smooth="yes"/>
      <point x="1027" y="0"/>
      <point x="1043" y="5"/>
      <point x="1054" y="16" type="curve" smooth="yes"/>
      <point x="1065" y="27"/>
      <point x="1070" y="43"/>
      <point x="1070" y="64" type="curve" smooth="yes"/>
      <point x="1070" y="261" type="line"/>
      <point x="932" y="261" type="line"/>
      <point x="932" y="131" type="line"/>
      <point x="373" y="131" type="line"/>
    </contour>
    <contour>
      <point x="1050" y="10" type="move" name="ogonek"/>
    </contour>
    <contour>
      <point x="584" y="0" type="move" name="bottom"/>
    </contour>
    <contour>
      <point x="584" y="1495" type="move" name="top"/>
    </contour>
  </outline>
</glyph>
<glyph name="F" format="1">
  <advance width="1156"/>
  <unicode hex="0046"/>
  <outline>
    <contour>
      <point x="384" y="694" type="line"/>
      <point x="947" y="694" type="line"/>
      <point x="947" y="824" type="line"/>
      <point x="384" y="824" type="line"/>
    </contour>
    <contour>
      <point x="400" y="1365" type="line"/>
      <point x="915" y="1365" type="line"/>
      <point x="915" y="1235" type="line"/>
      <point x="1053" y="1235" type="line"/>
      <point x="1053" y="1432" type="line" smooth="yes"/>
      <point x="1053" y="1453"/>
      <point x="1048" y="1469"/>
      <point x="1038" y="1479" type="curve" smooth="yes"/>
      <point x="1028" y="1489"/>
      <point x="1012" y="1494"/>
      <point x="990.999" y="1494" type="curve" smooth="yes"/>
      <point x="119" y="1494" type="line"/>
      <point x="119" y="1365" type="line"/>
      <point x="255" y="1365" type="line"/>
      <point x="255" y="-0.999999" type="line"/>
      <point x="401" y="-0.999999" type="line"/>
    </contour>
  </outline>
</glyph>
<glyph name="G" format="1">
  <advance width="1426"/>
  <unicode hex="0047"/>
  <outline>
    <contour>
      <point x="1371" y="252"/>
      <point x="1396" y="300"/>
      <point x="1396" y="345" type="curve" smooth="yes"/>
      <point x="1396" y="634" type="line" smooth="yes"/>
      <point x="1396" y="724"/>
      <point x="1357" y="765"/>
      <point x="1265" y="765" type="curve" smooth="yes"/>
      <point x="842" y="765" type="line"/>
      <point x="842" y="632" type="line"/>
      <point x="1208" y="632" type="line" smooth="yes"/>
      <point x="1240" y="632"/>
      <point x="1255" y="617"/>
      <point x="1255" y="585" type="curve"/>
      <point x="1255" y="358" type="line" smooth="yes"/>
      <point x="1255" y="354"/>
      <point x="1255" y="350"/>
      <point x="1253" y="346" type="curve" smooth="yes"/>
      <point x="1224" y="273"/>
      <point x="1009" y="114"/>
      <point x="789" y="114" type="curve" smooth="yes"/>
      <point x="446" y="114"/>
      <point x="178" y="399"/>
      <point x="178" y="758" type="curve" smooth="yes"/>
      <point x="178" y="1111"/>
      <point x="433" y="1394"/>
      <point x="778" y="1394" type="curve" smooth="yes"/>
      <point x="943" y="1394"/>
      <point x="1108" y="1318"/>
      <point x="1205" y="1237" type="curve" smooth="yes"/>
      <point x="1224" y="1221"/>
      <point x="1234" y="1213"/>
      <point x="1234" y="1213" type="curve"/>
      <point x="1326" y="1329" type="line"/>
      <point x="1326" y="1329"/>
      <point x="1313" y="1339"/>
      <point x="1287" y="1358" type="curve" smooth="yes"/>
      <point x="1146" y="1461"/>
      <point x="1010" y="1530"/>
      <point x="779" y="1530" type="curve" smooth="yes"/>
      <point x="358" y="1530"/>
      <point x="28" y="1186"/>
      <point x="28" y="757" type="curve" smooth="yes"/>
      <point x="28" y="320"/>
      <point x="364" y="-22"/>
      <point x="787" y="-22" type="curve" smooth="yes"/>
      <point x="1012" y="-22"/>
      <point x="1210" y="83"/>
      <point x="1322" y="202" type="curve" smooth="yes"/>
    </contour>
    <contour>
      <point x="773" y="1495" type="move" name="top"/>
    </contour>
    <contour>
      <point x="713" y="0" type="move" name="bottom"/>
    </contour>
  </outline>
</glyph>
<glyph name="N" format="1">
  <advance width="1584"/>
  <unicode hex="004E"/>
  <outline>
    <contour>
      <point x="1329" y="1365" type="line"/>
      <point x="1464" y="1365" type="line"/>
      <point x="1464" y="1495" type="line"/>
      <point x="1244" y="1495" type="line" smooth="yes"/>
      <point x="1223" y="1495"/>
      <point x="1207" y="1490"/>
      <point x="1197" y="1480" type="curve" smooth="yes"/>
      <point x="1187" y="1470"/>
      <point x="1182" y="1454"/>
      <point x="1182" y="1433" type="curve" smooth="yes"/>
      <point x="1182" y="224" type="line"/>
      <point x="487" y="1455" type="line" smooth="yes"/>
      <point x="479" y="1469"/>
      <point x="468" y="1479"/>
      <point x="454" y="1485" type="curve" smooth="yes"/>
      <point x="440" y="1491"/>
      <point x="426" y="1495"/>
      <point x="411" y="1496" type="curve"/>
      <point x="270" y="1496" type="line"/>
      <point x="270" y="131" type="line"/>
      <point x="135" y="131" type="line"/>
      <point x="135" y="0.999999" type="line"/>
      <point x="354" y="0.999999" type="line" smooth="yes"/>
      <point x="375" y="0.999999"/>
      <point x="391" y="6"/>
      <point x="401" y="17" type="curve" smooth="yes"/>
      <point x="411" y="28"/>
      <point x="416" y="44"/>
      <point x="416" y="65" type="curve" smooth="yes"/>
      <point x="416" y="1274" type="line"/>
      <point x="1112" y="43" type="line" smooth="yes"/>
      <point x="1119" y="30"/>
      <point x="1129" y="20"/>
      <point x="1142" y="13" type="curve" smooth="yes"/>
      <point x="1155" y="6"/>
      <point x="1170" y="2"/>
      <point x="1187" y="2" type="curve" smooth="yes"/>
      <point x="1326" y="2" type="line"/>
    </contour>
    <contour>
      <point x="792" y="1495" type="move" name="top"/>
    </contour>
    <contour>
      <point x="792" y="0" type="move" name="bottom"/>
    </contour>
  </outline>
</glyph>
<glyph name="O" format="1">
  <advance width="1633"/>
  <unicode hex="004F"/>
  <outline>
    <contour>
      <point x="460" y="116"/>
      <point x="190" y="356"/>
      <point x="190" y="754" type="curve" smooth="yes"/>
      <point x="190" y="1120"/>
      <point x="425" y="1394"/>
      <point x="814" y="1394" type="curve" smooth="yes"/>
      <point x="1168" y="1394"/>
      <point x="1440" y="1151"/>
      <point x="1440" y="754" type="curve" smooth="yes"/>
      <point x="1440" y="395"/>
      <point x="1204" y="116"/>
      <point x="814" y="116" type="curve" smooth="yes"/>
    </contour>
    <contour>
      <point x="381" y="1530"/>
      <point x="40" y="1234"/>
      <point x="40" y="753" type="curve" smooth="yes"/>
      <point x="40" y="321"/>
      <point x="334" y="-20"/>
      <point x="815" y="-20" type="curve" smooth="yes"/>
      <point x="1249" y="-20"/>
      <point x="1590" y="274"/>
      <point x="1590" y="753" type="curve" smooth="yes"/>
      <point x="1590" y="1187"/>
      <point x="1295" y="1530"/>
      <point x="815" y="1530" type="curve" smooth="yes"/>
    </contour>
    <contour>
      <point x="817" y="1495" type="move" name="top"/>
    </contour>
  </outline>
</glyph>
<glyph name="P" format="1">
  <advance width="1252"/>
  <unicode hex="0050"/>
  <outline>
    <contour>
      <point x="393" y="1497" type="line"/>
      <point x="110" y="1497" type="line"/>
      <point x="110" y="1367" type="line"/>
      <point x="246" y="1367" type="line"/>
      <point x="246" y="2" type="line"/>
      <point x="392" y="2" type="line"/>
    </contour>
    <contour>
      <point x="376" y="631" type="line"/>
      <point x="642" y="631" type="line" smooth="yes"/>
      <point x="922" y="631"/>
      <point x="1156" y="771"/>
      <point x="1156" y="1065" type="curve" smooth="yes"/>
      <point x="1156" y="1347"/>
      <point x="940" y="1497"/>
      <point x="642" y="1497" type="curve" smooth="yes"/>
      <point x="375" y="1497" type="line"/>
      <point x="377" y="1367" type="line"/>
      <point x="642" y="1367" type="line" smooth="yes"/>
      <point x="852" y="1367"/>
      <point x="1006" y="1281"/>
      <point x="1006" y="1066" type="curve" smooth="yes"/>
      <point x="1006" y="857"/>
      <point x="862" y="761"/>
      <point x="642" y="761" type="curve" smooth="yes"/>
      <point x="377" y="761" type="line"/>
    </contour>
  </outline>
</glyph>
<glyph name="X" format="1">
  <advance width="1367"/>
  <unicode hex="0058"/>
  <outline>
    <contour>
      <point x="1050" y="1452" type="line"/>
      <point x="691" y="872" type="line"/>
      <point x="319" y="1452" type="line" smooth="yes"/>
      <point x="301" y="1480"/>
      <point x="275" y="1495"/>
      <point x="243" y="1495" type="curve" smooth="yes"/>
      <point x="80" y="1495" type="line"/>
      <point x="80" y="1365" type="line"/>
      <point x="216" y="1365" type="line"/>
      <point x="580" y="776" type="line"/>
      <point x="107" y="0" type="line"/>
      <point x="270" y="0" type="line"/>
      <point x="689" y="684" type="line"/>
      <point x="1101" y="0" type="line"/>
      <point x="1264" y="0" type="line"/>
      <point x="791" y="776" type="line"/>
      <point x="1148" y="1365" type="line"/>
      <point x="1287" y="1365" type="line"/>
      <point x="1287" y="1495" type="line"/>
      <point x="1124" y="1495" type="line" smooth="yes"/>
      <point x="1092" y="1495"/>
      <point x="1066" y="1480"/>
      <point x="1049" y="1451" type="curve"/>
    </contour>
  </outline>
</glyph>
<glyph name="asciicircum" format="1">
  <advance width="1196"/>
  <unicode hex="005E"/>
  <outline>
    <contour>
      <point x="691" y="1495" type="line"/>
      <point x="504" y="1495" type="line"/>
      <point x="200" y="876" type="line"/>
      <point x="338" y="876" type="line"/>
      <point x="605" y="1391" type="line"/>
      <point x="862" y="876" type="line"/>
      <point x="999.999" y="876" type="line"/>
    </contour>
  </outline>
</glyph>
<glyph name="a" format="1">
  <advance width="1192"/>
  <unicode hex="0061"/>
  <outline>
    <contour>
      <point x="829" y="886"/>
      <point x="840" y="815"/>
      <point x="843" y="704" type="curve" smooth="yes"/>
      <point x="844" y="663"/>
      <point x="844" y="604"/>
      <point x="844" y="569" type="curve" smooth="yes"/>
      <point x="844" y="258"/>
      <point x="704" y="108"/>
      <point x="474" y="108" type="curve" smooth="yes"/>
      <point x="391" y="108"/>
      <point x="203" y="126"/>
      <point x="203" y="335" type="curve" smooth="yes"/>
      <point x="203" y="535"/>
      <point x="382" y="566"/>
      <point x="702" y="566" type="curve" smooth="yes"/>
      <point x="859" y="566" type="line"/>
      <point x="859" y="692" type="line"/>
      <point x="700" y="692" type="line" smooth="yes"/>
      <point x="242" y="692"/>
      <point x="65" y="588"/>
      <point x="65" y="329" type="curve" smooth="yes"/>
      <point x="65" y="74"/>
      <point x="243" y="-19"/>
      <point x="469" y="-19" type="curve" smooth="yes"/>
      <point x="689" y="-19"/>
      <point x="827" y="88"/>
      <point x="878" y="272" type="curve"/>
      <point x="870" y="269" type="line"/>
      <point x="869" y="186" type="line"/>
      <point x="869" y="74"/>
      <point x="935" y="-2"/>
      <point x="1035" y="-2" type="curve" smooth="yes"/>
      <point x="1164" y="-2" type="line"/>
      <point x="1164" y="122" type="line"/>
      <point x="1074" y="123" type="line" smooth="yes"/>
      <point x="1012" y="123"/>
      <point x="980" y="148"/>
      <point x="980" y="239" type="curve" smooth="yes"/>
      <point x="979.999" y="745" type="line" smooth="yes"/>
      <point x="980" y="875"/>
      <point x="948" y="971"/>
      <point x="884" y="1024" type="curve" smooth="yes"/>
      <point x="820" y="1077"/>
      <point x="712" y="1104"/>
      <point x="573" y="1104" type="curve" smooth="yes"/>
      <point x="346" y="1104"/>
      <point x="166" y="1026"/>
      <point x="157" y="879" type="curve" smooth="yes"/>
      <point x="153" y="817" type="line"/>
      <point x="291" y="817" type="line"/>
      <point x="295" y="854" type="line" smooth="yes"/>
      <point x="305" y="943"/>
      <point x="394" y="984"/>
      <point x="562" y="984" type="curve" smooth="yes"/>
      <point x="687" y="984"/>
      <point x="753" y="963"/>
      <point x="787" y="928" type="curve" smooth="yes"/>
    </contour>
    <contour>
      <point x="1073" y="10" type="move" name="ogonek"/>
    </contour>
    <contour>
      <point x="596" y="1084" type="move" name="top"/>
    </contour>
  </outline>
</glyph>
<glyph name="n" format="1">
  <advance width="1292"/>
  <unicode hex="006E"/>
  <outline>
    <contour>
      <point x="936" y="328" type="line"/>
      <point x="936" y="211" type="line" smooth="yes"/>
      <point x="936" y="127"/>
      <point x="948" y="71"/>
      <point x="973" y="43" type="curve" smooth="yes"/>
      <point x="998" y="15"/>
      <point x="1040" y="1"/>
      <point x="1100" y="1" type="curve"/>
      <point x="1099" y="0" type="line"/>
      <point x="1251" y="0" type="line"/>
      <point x="1251" y="124" type="line"/>
      <point x="1160" y="124" type="line" smooth="yes"/>
      <point x="1131" y="124"/>
      <point x="1109" y="129"/>
      <point x="1094" y="139" type="curve" smooth="yes"/>
      <point x="1079" y="149"/>
      <point x="1072" y="173"/>
      <point x="1072" y="211" type="curve" smooth="yes"/>
      <point x="1072" y="333" type="line"/>
    </contour>
    <contour>
      <point x="1072" y="985"/>
      <point x="863" y="1104"/>
      <point x="652" y="1104" type="curve" smooth="yes"/>
      <point x="500" y="1104"/>
      <point x="392" y="1045"/>
      <point x="305" y="948" type="curve"/>
      <point x="305" y="1023" type="line" smooth="yes"/>
      <point x="305" y="1066"/>
      <point x="278" y="1084"/>
      <point x="235" y="1084" type="curve" smooth="yes"/>
      <point x="55" y="1084" type="line"/>
      <point x="55" y="960" type="line"/>
      <point x="187" y="960" type="line"/>
      <point x="187" y="0" type="line"/>
      <point x="323" y="0" type="line"/>
      <point x="323" y="806" type="line"/>
      <point x="399" y="903"/>
      <point x="505" y="979"/>
      <point x="644" y="979" type="curve" smooth="yes"/>
      <point x="781" y="979"/>
      <point x="936" y="905"/>
      <point x="936" y="694" type="curve" smooth="yes"/>
      <point x="936" y="240" type="line"/>
      <point x="1072" y="240" type="line"/>
      <point x="1072" y="717" type="line" smooth="yes"/>
    </contour>
    <contour>
      <point x="646" y="1084" type="move" name="top"/>
    </contour>
    <contour>
      <point x="646" y="0" type="move" name="bottom"/>
    </contour>
  </outline>
</glyph>
<glyph name="v" format="1">
  <advance width="1175"/>
  <unicode hex="0076"/>
  <outline>
    <contour>
      <point x="985.999" y="1084" type="line" smooth="yes"/>
      <point x="951" y="1084"/>
      <point x="923" y="1071"/>
      <point x="910" y="1031" type="curve" smooth="yes"/>
      <point x="592" y="130" type="line"/>
      <point x="624" y="130" type="line"/>
      <point x="266" y="1031" type="line"/>
      <point x="255" y="1066"/>
      <point x="227" y="1084"/>
      <point x="191" y="1084" type="curve" smooth="yes"/>
      <point x="40" y="1084" type="line"/>
      <point x="40" y="960" type="line"/>
      <point x="142" y="960" type="line"/>
      <point x="535" y="0" type="line"/>
      <point x="684" y="0" type="line"/>
      <point x="1033" y="960" type="line"/>
      <point x="1137" y="960" type="line"/>
      <point x="1137" y="1084" type="line"/>
    </contour>
  </outline>
</glyph>
<glyph name="y" format="1">
  <advance width="1219"/>
  <unicode hex="0079"/>
  <outline>
    <contour>
      <point x="1022" y="1084" type="line" smooth="yes"/>
      <point x="983" y="1084"/>
      <point x="959" y="1067"/>
      <point x="946" y="1031" type="curve" smooth="yes"/>
      <point x="634" y="152" type="line"/>
      <point x="283" y="1031" type="line" smooth="yes"/>
      <point x="269" y="1066"/>
      <point x="246" y="1084"/>
      <point x="207" y="1084" type="curve" smooth="yes"/>
      <point x="39" y="1084" type="line"/>
      <point x="39" y="960" type="line"/>
      <point x="150" y="960" type="line"/>
      <point x="563" y="0" type="line"/>
      <point x="497" y="-217" type="line" smooth="yes"/>
      <point x="491" y="-238"/>
      <point x="481" y="-259"/>
      <point x="467" y="-280" type="curve" smooth="yes"/>
      <point x="453" y="-301"/>
      <point x="439" y="-317"/>
      <point x="425" y="-328" type="curve" smooth="yes"/>
      <point x="411" y="-339"/>
      <point x="394" y="-346"/>
      <point x="375" y="-349" type="curve" smooth="yes"/>
      <point x="356" y="-352"/>
      <point x="336" y="-353"/>
      <point x="316" y="-353" type="curve" smooth="yes"/>
      <point x="292" y="-353"/>
      <point x="258" y="-344"/>
      <point x="214" y="-326" type="curve" smooth="yes"/>
      <point x="170" y="-308"/>
      <point x="135" y="-291"/>
      <point x="110" y="-276" type="curve"/>
      <point x="65" y="-394" type="line"/>
      <point x="95.9999" y="-413"/>
      <point x="139" y="-432"/>
      <point x="193" y="-450" type="curve" smooth="yes"/>
      <point x="247" y="-468"/>
      <point x="292" y="-477"/>
      <point x="329" y="-477" type="curve" smooth="yes"/>
      <point x="366" y="-477"/>
      <point x="402" y="-472"/>
      <point x="436" y="-462" type="curve" smooth="yes"/>
      <point x="470" y="-452"/>
      <point x="499" y="-436"/>
      <point x="523" y="-415" type="curve" smooth="yes"/>
      <point x="547" y="-394"/>
      <point x="568" y="-365"/>
      <point x="585" y="-329" type="curve" smooth="yes"/>
      <point x="602" y="-293"/>
      <point x="620" y="-249"/>
      <point x="639" y="-196" type="curve" smooth="yes"/>
      <point x="1073" y="962" type="line"/>
      <point x="1178" y="962" type="line"/>
      <point x="1178" y="1086" type="line"/>
    </contour>
    <contour>
      <point x="610" y="1084" type="move" name="top"/>
    </contour>
  </outline>
</glyph>
<glyph name="currency" format="1">
  <advance width="1278"/>
  <unicode hex="00A4"/>
  <outline>
    <contour>
      <point x="1221" y="1235" type="line"/>
      <point x="1126" y="1329" type="line"/>
      <point x="893" y="1094" type="line"/>
      <point x="855" y="1122"/>
      <point x="815" y="1143"/>
      <point x="773" y="1157" type="curve" smooth="yes"/>
      <point x="731" y="1171"/>
      <point x="686" y="1178"/>
      <point x="639" y="1178" type="curve" smooth="yes"/>
      <point x="594" y="1178"/>
      <point x="549" y="1171"/>
      <point x="505" y="1157" type="curve" smooth="yes"/>
      <point x="461" y="1143"/>
      <point x="421" y="1122"/>
      <point x="384" y="1095" type="curve"/>
      <point x="151" y="1330" type="line"/>
      <point x="56" y="1236" type="line"/>
      <point x="290" y="999.999" type="line"/>
      <point x="263" y="964"/>
      <point x="242" y="925"/>
      <point x="228" y="883" type="curve" smooth="yes"/>
      <point x="214" y="841"/>
      <point x="207" y="796"/>
      <point x="207" y="748" type="curve" smooth="yes"/>
      <point x="207" y="701"/>
      <point x="214" y="656"/>
      <point x="228" y="614" type="curve" smooth="yes"/>
      <point x="242" y="572"/>
      <point x="263" y="532"/>
      <point x="290" y="495" type="curve"/>
      <point x="56" y="261" type="line"/>
      <point x="151" y="167" type="line"/>
      <point x="386" y="400" type="line"/>
      <point x="423" y="373"/>
      <point x="462" y="352"/>
      <point x="504" y="338" type="curve" smooth="yes"/>
      <point x="546" y="324"/>
      <point x="591" y="317"/>
      <point x="638" y="317" type="curve" smooth="yes"/>
      <point x="686" y="317"/>
      <point x="731" y="324"/>
      <point x="773" y="338" type="curve" smooth="yes"/>
      <point x="815" y="352"/>
      <point x="854" y="373"/>
      <point x="890" y="400" type="curve"/>
      <point x="1125" y="167" type="line"/>
      <point x="1220" y="261" type="line"/>
      <point x="983.999" y="495" type="line"/>
      <point x="1012" y="533"/>
      <point x="1033" y="573"/>
      <point x="1047" y="615" type="curve" smooth="yes"/>
      <point x="1061" y="657"/>
      <point x="1068" y="701"/>
      <point x="1068" y="746" type="curve" smooth="yes"/>
      <point x="1068" y="793"/>
      <point x="1061" y="838"/>
      <point x="1047" y="880" type="curve" smooth="yes"/>
      <point x="1033" y="922"/>
      <point x="1013" y="962"/>
      <point x="985.999" y="998.999" type="curve"/>
    </contour>
    <contour>
      <point x="842" y="953" type="line" smooth="yes"/>
      <point x="869" y="926"/>
      <point x="890" y="895"/>
      <point x="906" y="860" type="curve" smooth="yes"/>
      <point x="922" y="825"/>
      <point x="930" y="787"/>
      <point x="930" y="746" type="curve" smooth="yes"/>
      <point x="930" y="707"/>
      <point x="922" y="670"/>
      <point x="907" y="635" type="curve" smooth="yes"/>
      <point x="892" y="600"/>
      <point x="871" y="569"/>
      <point x="844" y="542" type="curve" smooth="yes"/>
      <point x="817" y="515"/>
      <point x="786" y="494"/>
      <point x="751" y="478" type="curve" smooth="yes"/>
      <point x="716" y="462"/>
      <point x="678" y="454"/>
      <point x="637" y="454" type="curve" smooth="yes"/>
      <point x="596" y="454"/>
      <point x="558" y="462"/>
      <point x="523" y="477" type="curve" smooth="yes"/>
      <point x="488" y="492"/>
      <point x="457" y="513"/>
      <point x="430" y="540" type="curve" smooth="yes"/>
      <point x="403" y="567"/>
      <point x="382" y="598"/>
      <point x="367" y="633" type="curve" smooth="yes"/>
      <point x="352" y="668"/>
      <point x="344" y="706"/>
      <point x="344" y="747" type="curve" smooth="yes"/>
      <point x="344" y="788"/>
      <point x="352" y="827"/>
      <point x="368" y="863" type="curve" smooth="yes"/>
      <point x="384" y="899"/>
      <point x="405" y="930"/>
      <point x="432" y="956" type="curve" smooth="yes"/>
      <point x="459" y="981.999"/>
      <point x="490" y="1003"/>
      <point x="525" y="1018" type="curve" smooth="yes"/>
      <point x="560" y="1033"/>
      <point x="597" y="1041"/>
      <point x="636" y="1041" type="curve" smooth="yes"/>
      <point x="675" y="1041"/>
      <point x="712" y="1033"/>
      <point x="747" y="1018" type="curve" smooth="yes"/>
      <point x="782" y="1003"/>
      <point x="813" y="981.999"/>
      <point x="840" y="955" type="curve" smooth="yes"/>
    </contour>
  </outline>
</glyph>
<glyph name="uni00B5" format="1">
  <advance width="1440"/>
  <unicode hex="00B5"/>
  <outline>
    <contour>
      <point x="1098" y="1171" type="line"/>
      <point x="996.999" y="1171" type="line"/>
      <point x="996.999" y="252" type="line"/>
      <point x="932" y="199"/>
      <point x="867" y="159"/>
      <point x="803" y="133" type="curve" smooth="yes"/>
      <point x="739" y="107"/>
      <point x="674" y="93.9999"/>
      <point x="609" y="93.9999" type="curve" smooth="yes"/>
      <point x="534" y="93.9999"/>
      <point x="481" y="113"/>
      <point x="449" y="151" type="curve" smooth="yes"/>
      <point x="417" y="189"/>
      <point x="401" y="251"/>
      <point x="401" y="337" type="curve" smooth="yes"/>
      <point x="401" y="1107" type="line" smooth="yes"/>
      <point x="401" y="1128"/>
      <point x="395" y="1144"/>
      <point x="384" y="1154" type="curve" smooth="yes"/>
      <point x="373" y="1164"/>
      <point x="356" y="1169"/>
      <point x="333" y="1169" type="curve" smooth="yes"/>
      <point x="241" y="1169" type="line"/>
      <point x="241" y="-479" type="line"/>
      <point x="390" y="-467" type="line"/>
      <point x="390" y="47" type="line"/>
      <point x="411" y="21"/>
      <point x="439" y="0.999999"/>
      <point x="474" y="-12" type="curve" smooth="yes"/>
      <point x="509" y="-25"/>
      <point x="550" y="-32"/>
      <point x="598" y="-32" type="curve" smooth="yes"/>
      <point x="661" y="-32"/>
      <point x="726" y="-19"/>
      <point x="793" y="7" type="curve" smooth="yes"/>
      <point x="860" y="33"/>
      <point x="929" y="73"/>
      <point x="999.999" y="126" type="curve"/>
      <point x="1010" y="73"/>
      <point x="1031" y="32"/>
      <point x="1063" y="3" type="curve" smooth="yes"/>
      <point x="1095" y="-26"/>
      <point x="1138" y="-41"/>
      <point x="1193" y="-41" type="curve" smooth="yes"/>
      <point x="1353" y="-40" type="line"/>
      <point x="1352" y="108" type="line"/>
      <point x="1246" y="108" type="line" smooth="yes"/>
      <point x="1217" y="108"/>
      <point x="1195" y="117"/>
      <point x="1180" y="135" type="curve" smooth="yes"/>
      <point x="1165" y="153"/>
      <point x="1158" y="181"/>
      <point x="1158" y="218" type="curve" smooth="yes"/>
      <point x="1158" y="1105" type="line" smooth="yes"/>
      <point x="1158" y="1126"/>
      <point x="1153" y="1142"/>
      <point x="1143" y="1152" type="curve" smooth="yes"/>
      <point x="1133" y="1162"/>
      <point x="1118" y="1167"/>
      <point x="1097" y="1167" type="curve"/>
    </contour>
  </outline>
</glyph>
<glyph name="guillemotright" format="1">
  <advance width="913"/>
  <unicode hex="00BB"/>
  <outline>
    <contour>
      <point x="817" y="620" type="line"/>
      <point x="817" y="715" type="line"/>
      <point x="618" y="955" type="line"/>
      <point x="455" y="955" type="line"/>
      <point x="684" y="668" type="line"/>
      <point x="455" y="370" type="line"/>
      <point x="618" y="370" type="line"/>
    </contour>
    <contour>
      <point x="452" y="620" type="line"/>
      <point x="452" y="715" type="line"/>
      <point x="253" y="954" type="line"/>
      <point x="95.9999" y="954" type="line"/>
      <point x="322" y="668" type="line"/>
      <point x="95.9999" y="371" type="line"/>
      <point x="253" y="371" type="line"/>
    </contour>
  </outline>
</glyph>
<glyph name="questiondown" format="1">
  <advance width="936"/>
  <unicode hex="00BF"/>
  <outline>
    <contour>
      <point x="416" y="1063"/>
      <point x="427" y="1038"/>
      <point x="448" y="1016" type="curve" smooth="yes"/>
      <point x="469" y="993.999"/>
      <point x="494" y="982.999"/>
      <point x="523" y="982.999" type="curve" smooth="yes"/>
      <point x="553" y="982.999"/>
      <point x="579" y="993.999"/>
      <point x="601" y="1016" type="curve" smooth="yes"/>
      <point x="623" y="1038"/>
      <point x="634" y="1063"/>
      <point x="634" y="1092" type="curve" smooth="yes"/>
      <point x="634" y="1122"/>
      <point x="623" y="1148"/>
      <point x="601" y="1169" type="curve" smooth="yes"/>
      <point x="579" y="1190"/>
      <point x="553" y="1201"/>
      <point x="523" y="1201" type="curve" smooth="yes"/>
      <point x="494" y="1201"/>
      <point x="469" y="1190"/>
      <point x="448" y="1169" type="curve" smooth="yes"/>
      <point x="427" y="1148"/>
      <point x="416" y="1122"/>
      <point x="416" y="1092" type="curve" smooth="yes"/>
    </contour>
    <contour>
      <point x="500" y="-217" type="line"/>
      <point x="460" y="-217"/>
      <point x="425" y="-210"/>
      <point x="394" y="-196" type="curve" smooth="yes"/>
      <point x="363" y="-182"/>
      <point x="337" y="-163"/>
      <point x="316" y="-138" type="curve" smooth="yes"/>
      <point x="294" y="-113"/>
      <point x="277" y="-85"/>
      <point x="265" y="-53" type="curve" smooth="yes"/>
      <point x="253" y="-21"/>
      <point x="247" y="13"/>
      <point x="247" y="50" type="curve" smooth="yes"/>
      <point x="247" y="102"/>
      <point x="257" y="152"/>
      <point x="277" y="199" type="curve" smooth="yes"/>
      <point x="297" y="246"/>
      <point x="327" y="294"/>
      <point x="367" y="342" type="curve" smooth="yes"/>
      <point x="465" y="461" type="line" smooth="yes"/>
      <point x="506" y="510"/>
      <point x="536" y="565"/>
      <point x="555" y="627" type="curve" smooth="yes"/>
      <point x="574" y="689"/>
      <point x="584" y="755"/>
      <point x="585" y="826" type="curve"/>
      <point x="466" y="826" type="line"/>
      <point x="465" y="766"/>
      <point x="454" y="709"/>
      <point x="433" y="654" type="curve" smooth="yes"/>
      <point x="412" y="599"/>
      <point x="380" y="547"/>
      <point x="337" y="498" type="curve" smooth="yes"/>
      <point x="226" y="375" type="line" smooth="yes"/>
      <point x="183" y="326"/>
      <point x="151" y="274"/>
      <point x="130" y="219" type="curve" smooth="yes"/>
      <point x="109" y="164"/>
      <point x="97.9999" y="108"/>
      <point x="97.9999" y="51" type="curve" smooth="yes"/>
      <point x="97.9999" y="-68"/>
      <point x="133" y="-163"/>
      <point x="203" y="-233" type="curve" smooth="yes"/>
      <point x="273" y="-303"/>
      <point x="371" y="-338"/>
      <point x="496" y="-338" type="curve" smooth="yes"/>
      <point x="559" y="-338"/>
      <point x="615" y="-328"/>
      <point x="665" y="-309" type="curve" smooth="yes"/>
      <point x="715" y="-290"/>
      <point x="758" y="-263"/>
      <point x="793" y="-229" type="curve" smooth="yes"/>
      <point x="828" y="-194"/>
      <point x="855" y="-152"/>
      <point x="873" y="-104" type="curve" smooth="yes"/>
      <point x="891" y="-56"/>
      <point x="900" y="-2"/>
      <point x="900" y="57" type="curve"/>
      <point x="759" y="57" type="line"/>
      <point x="759" y="-20"/>
      <point x="736" y="-84"/>
      <point x="690" y="-135" type="curve" smooth="yes"/>
      <point x="644" y="-186"/>
      <point x="582" y="-212"/>
      <point x="503" y="-212" type="curve"/>
    </contour>
  </outline>
</glyph>
<glyph name="Thorn" format="1">
  <advance width="1252"/>
  <unicode hex="00DE"/>
  <outline>
    <contour>
      <point x="393" y="1497" type="line"/>
      <point x="110" y="1497" type="line"/>
      <point x="110" y="1367" type="line"/>
      <point x="246" y="1367" type="line"/>
      <point x="246" y="2" type="line"/>
      <point x="392" y="2" type="line"/>
    </contour>
    <contour>
      <point x="376" y="347" type="line"/>
      <point x="642" y="347" type="line" smooth="yes"/>
      <point x="922" y="347"/>
      <point x="1156" y="487"/>
      <point x="1156" y="781" type="curve" smooth="yes"/>
      <point x="1156" y="1063"/>
      <point x="940" y="1213"/>
      <point x="642" y="1213" type="curve" smooth="yes"/>
      <point x="375" y="1213" type="line"/>
      <point x="377" y="1083" type="line"/>
      <point x="642" y="1083" type="line" smooth="yes"/>
      <point x="852" y="1083"/>
      <point x="1006" y="997"/>
      <point x="1006" y="782" type="curve" smooth="yes"/>
      <point x="1006" y="573"/>
      <point x="862" y="477"/>
      <point x="642" y="477" type="curve" smooth="yes"/>
      <point x="377" y="477" type="line"/>
    </contour>
  </outline>
</glyph>
<glyph name="germandbls" format="1">
  <advance width="1368"/>
  <unicode hex="00DF"/>
  <outline>
    <contour>
      <point x="782" y="691" type="line" smooth="yes"/>
      <point x="898" y="691"/>
      <point x="984.999" y="664"/>
      <point x="1042" y="611" type="curve" smooth="yes"/>
      <point x="1099" y="558"/>
      <point x="1128" y="484"/>
      <point x="1128" y="389" type="curve" smooth="yes"/>
      <point x="1128" y="295"/>
      <point x="1107" y="223"/>
      <point x="1066" y="174" type="curve" smooth="yes"/>
      <point x="1025" y="125"/>
      <point x="967" y="100"/>
      <point x="892" y="100" type="curve" smooth="yes"/>
      <point x="815" y="100"/>
      <point x="772" y="103"/>
      <point x="762" y="108" type="curve" smooth="yes"/>
      <point x="752" y="113"/>
      <point x="716" y="140"/>
      <point x="654" y="188" type="curve"/>
      <point x="573" y="67" type="line"/>
      <point x="620" y="29"/>
      <point x="656" y="5"/>
      <point x="680" y="-5" type="curve" smooth="yes"/>
      <point x="704" y="-15"/>
      <point x="771" y="-23"/>
      <point x="882" y="-29" type="curve" smooth="yes"/>
      <point x="1017" y="-36"/>
      <point x="1119" y="-2"/>
      <point x="1188" y="73" type="curve" smooth="yes"/>
      <point x="1257" y="148"/>
      <point x="1292" y="248"/>
      <point x="1292" y="373" type="curve" smooth="yes"/>
      <point x="1292" y="498"/>
      <point x="1261" y="596"/>
      <point x="1200" y="667" type="curve" smooth="yes"/>
      <point x="1139" y="738"/>
      <point x="1061" y="776"/>
      <point x="967" y="781" type="curve"/>
      <point x="1050" y="803"/>
      <point x="1105" y="844"/>
      <point x="1131" y="904" type="curve" smooth="yes"/>
      <point x="1157" y="964"/>
      <point x="1170" y="1036"/>
      <point x="1170" y="1119" type="curve" smooth="yes"/>
      <point x="1170" y="1244"/>
      <point x="1129" y="1343"/>
      <point x="1048" y="1415" type="curve" smooth="yes"/>
      <point x="967" y="1487"/>
      <point x="854" y="1523"/>
      <point x="709" y="1523" type="curve" smooth="yes"/>
      <point x="566" y="1523"/>
      <point x="453" y="1478"/>
      <point x="370" y="1388" type="curve" smooth="yes"/>
      <point x="287" y="1298"/>
      <point x="246" y="1164"/>
      <point x="246" y="986.999" type="curve" smooth="yes"/>
      <point x="246" y="117" type="line"/>
      <point x="117" y="115" type="line"/>
      <point x="117" y="-4" type="line"/>
      <point x="340" y="-4" type="line" smooth="yes"/>
      <point x="363" y="-4"/>
      <point x="381" y="1"/>
      <point x="393" y="12" type="curve" smooth="yes"/>
      <point x="405" y="23"/>
      <point x="411" y="39"/>
      <point x="411" y="60" type="curve" smooth="yes"/>
      <point x="411" y="688" type="line"/>
    </contour>
    <contour>
      <point x="411" y="989.999" type="line"/>
      <point x="411" y="1126"/>
      <point x="436" y="1228"/>
      <point x="487" y="1296" type="curve" smooth="yes"/>
      <point x="538" y="1364"/>
      <point x="614" y="1398"/>
      <point x="715" y="1398" type="curve" smooth="yes"/>
      <point x="809" y="1398"/>
      <point x="882" y="1373"/>
      <point x="935" y="1323" type="curve" smooth="yes"/>
      <point x="987.999" y="1273"/>
      <point x="1014" y="1201"/>
      <point x="1014" y="1107" type="curve" smooth="yes"/>
      <point x="1014" y="1013"/>
      <point x="987.999" y="944"/>
      <point x="937" y="901" type="curve" smooth="yes"/>
      <point x="886" y="858"/>
      <point x="815" y="836"/>
      <point x="724" y="836" type="curve" smooth="yes"/>
      <point x="413" y="836" type="line"/>
    </contour>
  </outline>
</glyph>
<glyph name="eng" format="1">
  <advance width="1292"/>
  <unicode hex="014B"/>
  <outline>
    <contour>
      <point x="1072" y="985"/>
      <point x="863" y="1104"/>
      <point x="652" y="1104" type="curve" smooth="yes"/>
      <point x="500" y="1104"/>
      <point x="392" y="1045"/>
      <point x="305" y="948" type="curve"/>
      <point x="305" y="1023" type="line" smooth="yes"/>
      <point x="305" y="1066"/>
      <point x="278" y="1084"/>
      <point x="235" y="1084" type="curve" smooth="yes"/>
      <point x="55" y="1084" type="line"/>
      <point x="55" y="960" type="line"/>
      <point x="187" y="960" type="line"/>
      <point x="187" y="0" type="line"/>
      <point x="323" y="0" type="line"/>
      <point x="323" y="806" type="line"/>
      <point x="399" y="903"/>
      <point x="505" y="979"/>
      <point x="644" y="979" type="curve" smooth="yes"/>
      <point x="781" y="979"/>
      <point x="936" y="905"/>
      <point x="936" y="694" type="curve" smooth="yes"/>
      <point x="936" y="20" type="line"/>
      <point x="1072" y="20" type="line"/>
      <point x="1072" y="717" type="line" smooth="yes"/>
    </contour>
    <contour>
      <point x="936" y="60" type="line"/>
      <point x="936" y="-102" type="line" smooth="yes"/>
      <point x="936" y="-255"/>
      <point x="880" y="-353"/>
      <point x="741" y="-353" type="curve" smooth="yes"/>
      <point x="685" y="-353"/>
      <point x="631" y="-344"/>
      <point x="577" y="-329" type="curve"/>
      <point x="547" y="-448" type="line"/>
      <point x="611" y="-465"/>
      <point x="675" y="-478"/>
      <point x="759" y="-478" type="curve" smooth="yes"/>
      <point x="925" y="-478"/>
      <point x="1072" y="-357"/>
      <point x="1072" y="-137" type="curve" smooth="yes"/>
      <point x="1072" y="54" type="line"/>
    </contour>
    <contour>
      <point x="646" y="1084" type="move" name="top"/>
    </contour>
    <contour>
      <point x="646" y="0" type="move" name="bottom"/>
    </contour>
  </outline>
</glyph>
<glyph name="tcaron" format="1">
  <advance width="675"/>
  <unicode hex="0165"/>
  <outline>
    <contour>
      <point x="438" y="1164" type="line"/>
      <point x="563" y="1164" type="line"/>
      <point x="563" y="1495" type="line"/>
      <point x="438" y="1495" type="line"/>
    </contour>
    <component base="t"/>
  </outline>
</glyph>
<glyph name="bullet" format="1">
  <advance width="526"/>
  <unicode hex="2022"/>
  <outline>
    <contour>
      <point x="394" y="580"/>
      <point x="406" y="598"/>
      <point x="415" y="618" type="curve" smooth="yes"/>
      <point x="424" y="638"/>
      <point x="429" y="659"/>
      <point x="429" y="681" type="curve" smooth="yes"/>
      <point x="429" y="726"/>
      <point x="413" y="765"/>
      <point x="380" y="798" type="curve" smooth="yes"/>
      <point x="347" y="831"/>
      <point x="308" y="847"/>
      <point x="263" y="847" type="curve" smooth="yes"/>
      <point x="241" y="847"/>
      <point x="220" y="842"/>
      <point x="200" y="833" type="curve" smooth="yes"/>
      <point x="180" y="824"/>
      <point x="162" y="812"/>
      <point x="147" y="797" type="curve" smooth="yes"/>
      <point x="131" y="782"/>
      <point x="118" y="764"/>
      <point x="109" y="744" type="curve" smooth="yes"/>
      <point x="99.9999" y="724"/>
      <point x="94.9999" y="703"/>
      <point x="94.9999" y="681" type="curve" smooth="yes"/>
      <point x="94.9999" y="659"/>
      <point x="99.9999" y="638"/>
      <point x="109" y="618" type="curve" smooth="yes"/>
      <point x="118" y="598"/>
      <point x="131" y="580"/>
      <point x="147" y="565" type="curve"/>
      <point x="162" y="549"/>
      <point x="180" y="536"/>
      <point x="200" y="527" type="curve" smooth="yes"/>
      <point x="220" y="518"/>
      <point x="241" y="513"/>
      <point x="263" y="513" type="curve" smooth="yes"/>
      <point x="285" y="513"/>
      <point x="306" y="518"/>
      <point x="326" y="527" type="curve" smooth="yes"/>
      <point x="346" y="536"/>
      <point x="364" y="549"/>
      <point x="379" y="565" type="curve" smooth="yes"/>
    </contour>
  </outline>
</glyph>
<glyph name="ellipsis" format="1">
  <advance width="1610"/>
  <unicode hex="2026"/>
  <outline>
    <contour>
      <point x="1454" y="95.9999" type="line"/>
      <point x="1454" y="126"/>
      <point x="1443" y="152"/>
      <point x="1420" y="175" type="curve" smooth="yes"/>
      <point x="1397" y="198"/>
      <point x="1371" y="209"/>
      <point x="1341" y="209" type="curve" smooth="yes"/>
      <point x="1311" y="209"/>
      <point x="1285" y="198"/>
      <point x="1263" y="175" type="curve" smooth="yes"/>
      <point x="1241" y="152"/>
      <point x="1230" y="125"/>
      <point x="1230" y="93.9999" type="curve" smooth="yes"/>
      <point x="1230" y="64"/>
      <point x="1241" y="38"/>
      <point x="1263" y="16" type="curve" smooth="yes"/>
      <point x="1285" y="-6"/>
      <point x="1311" y="-17"/>
      <point x="1341" y="-17" type="curve" smooth="yes"/>
      <point x="1372" y="-17"/>
      <point x="1399" y="-6"/>
      <point x="1422" y="16" type="curve" smooth="yes"/>
      <point x="1445" y="38"/>
      <point x="1456" y="64"/>
      <point x="1456" y="93.9999" type="curve"/>
    </contour>
    <contour>
      <point x="920" y="93.9999" type="line" smooth="yes"/>
      <point x="920" y="124"/>
      <point x="909" y="150"/>
      <point x="886" y="173" type="curve" smooth="yes"/>
      <point x="863" y="196"/>
      <point x="837" y="207"/>
      <point x="807" y="207" type="curve" smooth="yes"/>
      <point x="777" y="207"/>
      <point x="751" y="196"/>
      <point x="728" y="173" type="curve" smooth="yes"/>
      <point x="705" y="150"/>
      <point x="694" y="123"/>
      <point x="694" y="92" type="curve" smooth="yes"/>
      <point x="694" y="62"/>
      <point x="705" y="36"/>
      <point x="727" y="14" type="curve" smooth="yes"/>
      <point x="749" y="-8"/>
      <point x="775" y="-19"/>
      <point x="805" y="-19" type="curve" smooth="yes"/>
      <point x="836" y="-19"/>
      <point x="863" y="-8"/>
      <point x="886" y="14" type="curve" smooth="yes"/>
      <point x="909" y="36"/>
      <point x="920" y="62"/>
      <point x="920" y="92" type="curve" smooth="yes"/>
    </contour>
    <contour>
      <point x="383" y="92" type="line"/>
      <point x="383" y="122"/>
      <point x="372" y="148"/>
      <point x="349" y="171" type="curve" smooth="yes"/>
      <point x="326" y="194"/>
      <point x="300" y="205"/>
      <point x="270" y="205" type="curve" smooth="yes"/>
      <point x="240" y="205"/>
      <point x="214" y="194"/>
      <point x="192" y="171" type="curve" smooth="yes"/>
      <point x="170" y="148"/>
      <point x="159" y="121"/>
      <point x="159" y="90" type="curve" smooth="yes"/>
      <point x="159" y="60"/>
      <point x="170" y="34"/>
      <point x="192" y="12" type="curve" smooth="yes"/>
      <point x="214" y="-9.99999"/>
      <point x="240" y="-21"/>
      <point x="270" y="-21" type="curve" smooth="yes"/>
      <point x="301" y="-21"/>
      <point x="328" y="-9.99999"/>
      <point x="351" y="12" type="curve" smooth="yes"/>
      <point x="374" y="34"/>
      <point x="385" y="60"/>
      <point x="385" y="90" type="curve"/>
    </contour>
  </outline>
</glyph>
<glyph name="G.001" format="1">
  <advance width="1426"/>
  <outline>
    <contour>
      <point x="1002" y="765" type="line"/>
      <point x="1002" y="632" type="line"/>
      <point x="1208" y="632" type="line" smooth="yes"/>
      <point x="1240" y="632"/>
      <point x="1255" y="617"/>
      <point x="1255" y="585" type="curve" smooth="yes"/>
      <point x="1255" y="358" type="line" smooth="yes"/>
      <point x="1255" y="354"/>
      <point x="1255" y="350"/>
      <point x="1253" y="346" type="curve"/>
      <point x="1224" y="273"/>
      <point x="1009" y="114"/>
      <point x="789" y="114" type="curve" smooth="yes"/>
      <point x="446" y="114"/>
      <point x="178" y="399"/>
      <point x="178" y="758" type="curve" smooth="yes"/>
      <point x="178" y="1108.44"/>
      <point x="429.309" y="1389.88"/>
      <point x="770.496" y="1393.95" type="curve" smooth="yes"/>
      <point x="878.134" y="1392.66"/>
      <point x="1009.07" y="1363.79"/>
      <point x="1098" y="1312" type="curve" smooth="yes"/>
      <point x="1163" y="1275"/>
      <point x="1211" y="1225"/>
      <point x="1211" y="1139" type="curve" smooth="yes"/>
      <point x="1211" y="1105" type="line"/>
      <point x="1350" y="1105" type="line"/>
      <point x="1350" y="1152" type="line" smooth="yes"/>
      <point x="1351" y="1297"/>
      <point x="1288" y="1382"/>
      <point x="1160" y="1447" type="curve" smooth="yes"/>
      <point x="1029" y="1513"/>
      <point x="858" y="1531"/>
      <point x="771.388" y="1529.96" type="curve" smooth="yes"/>
      <point x="347" y="1521"/>
      <point x="28" y="1182"/>
      <point x="27.999" y="757" type="curve" smooth="yes"/>
      <point x="27.999" y="320"/>
      <point x="363.999" y="-22"/>
      <point x="786.999" y="-22" type="curve" smooth="yes"/>
      <point x="1012" y="-22"/>
      <point x="1210" y="83"/>
      <point x="1322" y="202" type="curve" smooth="yes"/>
      <point x="1371" y="252"/>
      <point x="1396" y="300"/>
      <point x="1396" y="345" type="curve" smooth="yes"/>
      <point x="1396" y="634" type="line" smooth="yes"/>
      <point x="1396" y="724"/>
      <point x="1357" y="765"/>
      <point x="1265" y="765" type="curve" smooth="yes"/>
    </contour>
  </outline>
</glyph>
